<svg width="1440" height="264" viewBox="0 0 1440 264" fill="none" xmlns="http://www.w3.org/2000/svg">
<path d="M479.599 -570.966C480.426 -570.971 481.252 -570.975 482.103 -570.981C484.754 -570.993 487.404 -570.997 490.054 -570.999C490.958 -570.999 491.863 -571 492.795 -571C505.702 -570.989 518.266 -570.758 530.992 -568.713C531.793 -568.593 532.594 -568.472 533.418 -568.348C580.419 -561.195 625.858 -543.27 661 -514.749C662.662 -513.406 664.353 -512.114 666.079 -510.835C673.039 -505.543 679.611 -499.684 685.492 -493.476C685.848 -493.108 686.204 -492.74 686.571 -492.361C697.458 -481.095 706.561 -468.993 715.076 -456.28C716.2 -454.609 717.341 -452.947 718.484 -451.286C719.465 -451.758 719.465 -451.758 720.465 -452.239C765.365 -473.72 813.007 -487.722 864.133 -492.069C864.851 -492.131 865.57 -492.192 866.31 -492.255C872.305 -492.731 878.251 -492.895 884.269 -492.915C885.732 -492.923 885.732 -492.923 887.224 -492.93C890.357 -492.943 893.489 -492.947 896.622 -492.948C897.422 -492.949 897.422 -492.949 898.238 -492.949C914.096 -492.954 929.703 -492.793 945.406 -490.663C946.359 -490.539 947.312 -490.414 948.294 -490.286C987.277 -485.103 1024.64 -474.815 1059.7 -459.028C1060.76 -458.551 1061.83 -458.077 1062.89 -457.605C1078.77 -450.569 1093.5 -442.06 1107.95 -433.004C1109.04 -432.323 1110.14 -431.642 1111.23 -430.961C1112.01 -430.475 1112.78 -429.989 1113.59 -429.489C1116.59 -431.975 1119 -434.586 1121.33 -437.575C1125.07 -442.262 1129.17 -446.588 1133.45 -450.906C1135.12 -452.615 1136.72 -454.37 1138.33 -456.121C1140.76 -458.732 1143.28 -461.145 1146.05 -463.482C1147.43 -464.685 1148.68 -465.941 1149.95 -467.239C1155.33 -472.682 1161.26 -477.784 1167.53 -482.442C1169.33 -483.799 1171.08 -485.21 1172.83 -486.62C1177.38 -490.208 1182.18 -493.486 1187.04 -496.754C1188.3 -497.609 1189.54 -498.481 1190.79 -499.354C1203.13 -507.909 1216.55 -515.548 1230.27 -522.305C1230.97 -522.654 1231.67 -523.003 1232.39 -523.363C1275.5 -544.687 1323.41 -557.491 1372.7 -561.682C1373.77 -561.774 1373.77 -561.774 1374.87 -561.868C1380.87 -562.344 1386.81 -562.507 1392.83 -562.528C1394.29 -562.535 1394.29 -562.535 1395.79 -562.543C1398.92 -562.555 1402.05 -562.559 1405.18 -562.561C1405.98 -562.561 1405.98 -562.561 1406.8 -562.562C1422.66 -562.566 1438.27 -562.405 1453.97 -560.275C1455.4 -560.089 1455.4 -560.089 1456.86 -559.898C1481.17 -556.665 1504.96 -551.653 1528 -544.103C1528 -290.018 1528 -35.9324 1528 225.852C1503.32 233.041 1479.52 238.73 1453.97 242.025C1452.68 242.199 1452.68 242.199 1451.37 242.377C1421.32 246.277 1388.22 246.095 1358.21 242.025C1357.26 241.901 1356.3 241.776 1355.32 241.648C1315.7 236.379 1277.92 225.776 1242.34 209.68C1241.76 209.418 1241.18 209.157 1240.58 208.888C1233.8 205.812 1227.09 202.68 1220.61 199.132C1217.15 201.676 1213.81 204.3 1210.5 206.999C1205.26 211.228 1199.74 215.07 1194.05 218.821C1193.52 219.178 1192.98 219.535 1192.43 219.903C1152.35 246.416 1100.55 263.762 1049.91 263.966C1048.67 263.973 1048.67 263.973 1047.4 263.98C1044.75 263.993 1042.1 263.997 1039.45 263.998C1038.55 263.999 1037.64 264 1036.71 264C1023.81 263.989 1011.24 263.758 998.516 261.713C997.715 261.593 996.914 261.472 996.089 261.348C949.089 254.195 903.65 236.27 868.508 207.749C866.846 206.406 865.155 205.114 863.429 203.835C856.469 198.543 849.896 192.684 844.016 186.476C843.66 186.108 843.304 185.74 842.937 185.36C832.05 174.095 822.947 161.993 814.432 149.28C813.308 147.609 812.167 145.947 811.023 144.286C810.37 144.601 809.716 144.915 809.043 145.239C764.142 166.72 716.5 180.722 665.375 185.069C664.297 185.161 664.297 185.161 663.198 185.255C657.203 185.731 651.257 185.895 645.239 185.915C643.776 185.923 643.776 185.923 642.284 185.93C639.151 185.943 636.018 185.947 632.886 185.948C632.353 185.949 631.819 185.949 631.27 185.949C615.411 185.954 599.805 185.793 584.102 183.663C583.149 183.539 582.196 183.414 581.214 183.286C542.231 178.103 504.865 167.815 469.804 152.028C468.744 151.551 467.681 151.076 466.617 150.605C450.735 143.569 436.011 135.06 421.555 126.004C420.463 125.323 419.371 124.642 418.279 123.961C417.112 123.232 417.112 123.232 415.922 122.488C412.918 124.975 410.51 127.586 408.177 130.575C404.434 135.262 400.333 139.588 396.057 143.906C394.389 145.615 392.788 147.37 391.178 149.12C388.747 151.732 386.23 154.145 383.461 156.482C382.081 157.685 380.823 158.941 379.56 160.239C374.18 165.682 368.251 170.784 361.983 175.442C360.175 176.799 358.43 178.209 356.677 179.62C352.124 183.208 347.326 186.486 342.473 189.754C341.211 190.609 339.964 191.481 338.719 192.354C326.383 200.909 312.957 208.548 299.242 215.305C298.19 215.829 298.19 215.829 297.117 216.363C254.004 237.686 206.095 250.491 156.812 254.682C155.735 254.774 155.735 254.774 154.635 254.868C148.64 255.344 142.694 255.507 136.676 255.528C135.214 255.535 135.214 255.535 133.721 255.543C130.589 255.555 127.456 255.559 124.323 255.561C123.79 255.561 123.257 255.561 122.707 255.562C106.849 255.566 91.242 255.405 75.5391 253.275C74.5861 253.151 73.633 253.027 72.6511 252.898C41.7322 248.787 11.7654 241.547 -17 230.774C-17 -19.1341 -17 -269.043 -17 -526.524C6.71422 -534.813 6.71422 -534.813 15.3384 -537.203C15.8476 -537.345 16.3568 -537.487 16.8815 -537.634C36.018 -542.951 55.6885 -546.466 75.5391 -549.025C76.3982 -549.141 77.2573 -549.257 78.1425 -549.377C108.19 -553.277 141.288 -553.095 171.297 -549.025C172.25 -548.901 173.203 -548.776 174.185 -548.648C213.809 -543.379 251.585 -532.776 287.172 -516.68C287.75 -516.419 288.328 -516.157 288.924 -515.888C295.706 -512.812 302.418 -509.68 308.898 -506.132C312.361 -508.676 315.702 -511.3 319.007 -513.999C324.245 -518.228 329.763 -522.07 335.453 -525.821C335.99 -526.178 336.527 -526.535 337.081 -526.903C377.156 -553.416 428.963 -570.762 479.599 -570.966Z" fill="#9E1068"/>
</svg>
